<svg width="32" height="32" viewBox="0 0 32 32" fill="none" xmlns="http://www.w3.org/2000/svg">
<path d="M29.0613 11.3743C29.0613 10.641 28.4613 10.041 27.728 10.041H18.3947C17.6613 10.041 17.0613 10.641 17.0613 11.3743C17.0613 12.1076 17.6613 12.7076 18.3947 12.7076H27.728C28.4613 12.7076 29.0613 12.1076 29.0613 11.3743ZM17.0613 22.041C17.0613 22.7743 17.6613 23.3743 18.3947 23.3743H27.728C28.4613 23.3743 29.0613 22.7743 29.0613 22.041C29.0613 21.3076 28.4613 20.7076 27.728 20.7076H18.3947C17.6613 20.7076 17.0613 21.3076 17.0613 22.041ZM13.688 6.88098C14.208 7.40098 14.208 8.24098 13.688 8.76098L8.04799 14.4276C7.52799 14.9476 6.68799 14.9476 6.15466 14.4276L3.32799 11.5876C2.80799 11.0676 2.80799 10.2276 3.32799 9.70764C3.84799 9.18764 4.68799 9.18764 5.20799 9.70764L7.10132 11.601L11.8213 6.88098C12.328 6.37431 13.1813 6.37431 13.688 6.88098ZM13.7013 17.561C14.2213 18.081 14.2213 18.921 13.7013 19.441L8.06132 25.1076C7.54132 25.6276 6.70132 25.6276 6.16799 25.1076L3.32799 22.2543C2.80799 21.7343 2.80799 20.8943 3.32799 20.3743C3.84799 19.8543 4.68799 19.8543 5.20799 20.3743L7.10132 22.2676L11.8213 17.5476C12.328 17.041 13.1813 17.041 13.7013 17.561Z" fill="#2C3E50"/>
</svg>
