<svg width="32" height="32" viewBox="0 0 32 32" fill="none" xmlns="http://www.w3.org/2000/svg">
<path d="M11.5998 21.1996L6.39981 15.9996L11.5998 10.7996C12.1198 10.2796 12.1198 9.45297 11.5998 8.93297C11.0798 8.41297 10.2531 8.41297 9.73314 8.93297L3.61314 15.053C3.09314 15.573 3.09314 16.413 3.61314 16.933L9.73314 23.0663C10.2531 23.5863 11.0798 23.5863 11.5998 23.0663C12.1198 22.5463 12.1198 21.7196 11.5998 21.1996ZM20.3998 21.1996L25.5998 15.9996L20.3998 10.7996C19.8798 10.2796 19.8798 9.45297 20.3998 8.93297C20.9198 8.41297 21.7465 8.41297 22.2665 8.93297L28.3865 15.053C28.9065 15.573 28.9065 16.413 28.3865 16.933L22.2665 23.0663C21.7465 23.5863 20.9198 23.5863 20.3998 23.0663C19.8798 22.5463 19.8798 21.7196 20.3998 21.1996Z" fill="#2C3E50"/>
</svg>
