<svg width="32" height="32" viewBox="0 0 32 32" fill="none" xmlns="http://www.w3.org/2000/svg">
<path d="M12.5798 8.1434C9.85983 11.1967 7.99316 15.5834 7.81983 15.9967L2.99316 13.9301L8.39316 8.53007C9.01983 7.9034 9.9265 7.6234 10.8065 7.79674L12.5798 8.1434ZM15.2198 22.3434C15.2198 22.3434 20.2065 20.2767 23.0732 17.4101C30.2732 10.2101 29.0732 4.5834 28.6865 3.31674C27.4198 2.91674 21.7932 1.73007 14.5932 8.93007C11.7265 11.7967 9.65983 16.7834 9.65983 16.7834L15.2198 22.3434ZM23.8598 19.4234C20.8065 22.1434 16.4198 24.0101 16.0065 24.1834L18.0732 29.0101L23.4732 23.6101C24.0998 22.9834 24.3798 22.0767 24.2065 21.1967L23.8598 19.4234ZM12.3265 23.6767C12.3265 24.7834 11.8732 25.7834 11.1532 26.5034C9.57983 28.0767 2.99316 29.0101 2.99316 29.0101C2.99316 29.0101 3.9265 22.4234 5.49983 20.8501C6.21983 20.1301 7.21983 19.6767 8.3265 19.6767C10.5398 19.6767 12.3265 21.4634 12.3265 23.6767ZM17.6598 11.6767C17.6598 10.2101 18.8598 9.01007 20.3265 9.01007C21.7932 9.01007 22.9932 10.2101 22.9932 11.6767C22.9932 13.1434 21.7932 14.3434 20.3265 14.3434C18.8598 14.3434 17.6598 13.1434 17.6598 11.6767Z" fill="#2C3E50"/>
</svg>
